<?xml version="1.0" encoding="UTF-8" standalone="no"?>
<!-- Created with Inkscape (http://www.inkscape.org/) -->

<svg
   width="2000"
   height="800"
   viewBox="0 0 529.16665 211.66667"
   version="1.1"
   id="svg1"
   inkscape:version="1.3 (0e150ed6c4, 2023-07-21)"
   sodipodi:docname="2000x800.svg"
   xml:space="preserve"
   inkscape:export-filename="../../../../home/santosvilanculos/GitHub/planigale/.github/2000x800.png"
   inkscape:export-xdpi="96"
   inkscape:export-ydpi="96"
   xmlns:inkscape="http://www.inkscape.org/namespaces/inkscape"
   xmlns:sodipodi="http://sodipodi.sourceforge.net/DTD/sodipodi-0.dtd"
   xmlns="http://www.w3.org/2000/svg"
   xmlns:svg="http://www.w3.org/2000/svg"><sodipodi:namedview
     id="namedview1"
     pagecolor="#505050"
     bordercolor="#ffffff"
     borderopacity="1"
     inkscape:showpageshadow="0"
     inkscape:pageopacity="0"
     inkscape:pagecheckerboard="1"
     inkscape:deskcolor="#505050"
     inkscape:document-units="px"
     inkscape:zoom="0.31055459"
     inkscape:cx="859.75223"
     inkscape:cy="362.25515"
     inkscape:window-width="1366"
     inkscape:window-height="699"
     inkscape:window-x="0"
     inkscape:window-y="0"
     inkscape:window-maximized="1"
     inkscape:current-layer="layer1" /><defs
     id="defs1"><rect
   x="241.71778"
   y="232.85026"
   width="1561.6532"
   height="448.50802"
   id="rect7" /><rect
   x="148.31974"
   y="-47.886394"
   width="1375.6132"
   height="1450.7336"
   id="rect5" /><rect
   id="XMLID_459_"
   width="750"
   height="500" /><rect
   id="XMLID_428_"
   width="750"
   height="500" /><rect
   x="37.744422"
   y="145.85396"
   width="472.76267"
   height="582.75863"
   id="rect3-3" /><rect
   x="61.415822"
   y="148.72211"
   width="289.06694"
   height="311.95132"
   id="rect2-5" /><rect
   x="37.744423"
   y="145.85396"
   width="472.76266"
   height="582.75861"
   id="rect3-7" /><rect
   x="37.744423"
   y="145.85396"
   width="472.76266"
   height="582.75861"
   id="rect3-7-9" /><rect
   x="37.744423"
   y="145.85396"
   width="472.76266"
   height="582.75861"
   id="rect3-79" /><rect
   x="37.744423"
   y="145.85396"
   width="472.76266"
   height="582.75861"
   id="rect3-2" /><rect
   x="37.744423"
   y="145.85396"
   width="472.76266"
   height="582.75861"
   id="rect3-29" /><rect
   x="37.744423"
   y="145.85396"
   width="472.76266"
   height="582.75861"
   id="rect3-75" /><rect
   x="37.744423"
   y="145.85396"
   width="472.76266"
   height="582.75861"
   id="rect3-1" />&#10;	&#10;<mask
   maskUnits="userSpaceOnUse"
   id="mask6"><text
     xml:space="preserve"
     transform="matrix(1.7111351,0,0,0.78086981,217.68736,67.342416)"
     id="text6"
     style="font-size:346.667px;font-family:itaki;-inkscape-font-specification:itaki;white-space:pre;shape-inside:url(#rect5);display:inline;fill:#ffffff;fill-opacity:1"><tspan
       x="148.32031"
       y="223.76715"
       id="tspan3">o</tspan></text></mask><rect
   x="37.744422"
   y="145.85396"
   width="472.76267"
   height="582.75863"
   id="rect3" /><rect
   x="61.415822"
   y="148.72211"
   width="289.06694"
   height="311.95132"
   id="rect2" /><rect
   x="37.744423"
   y="145.85396"
   width="472.76266"
   height="582.75861"
   id="rect3-7-6" /><rect
   x="37.744423"
   y="145.85396"
   width="472.76266"
   height="582.75861"
   id="rect3-7-9-0" /><rect
   x="37.744423"
   y="145.85396"
   width="472.76266"
   height="582.75861"
   id="rect3-79-6" /><rect
   x="37.744423"
   y="145.85396"
   width="472.76266"
   height="582.75861"
   id="rect3-2-2" /><rect
   x="37.744423"
   y="145.85396"
   width="472.76266"
   height="582.75861"
   id="rect3-29-6" /><rect
   x="37.744423"
   y="145.85396"
   width="472.76266"
   height="582.75861"
   id="rect3-75-1" /><rect
   x="37.744423"
   y="145.85396"
   width="472.76266"
   height="582.75861"
   id="rect3-1-8" /><rect
   x="37.744422"
   y="145.85396"
   width="472.76267"
   height="582.75863"
   id="rect3-5" /><rect
   x="61.415822"
   y="148.72211"
   width="289.06694"
   height="311.95132"
   id="rect2-3" /><rect
   x="37.744423"
   y="145.85396"
   width="472.76266"
   height="582.75861"
   id="rect3-7-5" /><rect
   x="37.744423"
   y="145.85396"
   width="472.76266"
   height="582.75861"
   id="rect3-7-9-6" /><rect
   x="37.744423"
   y="145.85396"
   width="472.76266"
   height="582.75861"
   id="rect3-79-2" /><rect
   x="37.744423"
   y="145.85396"
   width="472.76266"
   height="582.75861"
   id="rect3-2-9" /><rect
   x="37.744423"
   y="145.85396"
   width="472.76266"
   height="582.75861"
   id="rect3-29-1" /><rect
   x="37.744423"
   y="145.85396"
   width="472.76266"
   height="582.75861"
   id="rect3-75-2" /><rect
   x="37.744423"
   y="145.85396"
   width="472.76266"
   height="582.75861"
   id="rect3-1-7" /></defs><g
     inkscape:label="Layer 1"
     inkscape:groupmode="layer"
     id="layer1"><rect
       style="fill:#393430;stroke-width:1.25558;fill-opacity:1"
       id="rect1"
       width="529.16669"
       height="211.66667"
       x="0"
       y="0" /><text
       xml:space="preserve"
       transform="matrix(0.26458333,0,0,0.26458333,62.403193,-6.8289101)"
       id="text7"
       style="font-size:346.667px;font-family:itaki;-inkscape-font-specification:itaki;white-space:pre;shape-inside:url(#rect7);display:inline;fill:#feeaa4;fill-opacity:1"><tspan
         x="241.71875"
         y="504.50348"
         id="tspan4">Planigale</tspan></text></g></svg>
