<?xml version="1.0" encoding="UTF-8" standalone="no"?>
<!-- Created with Inkscape (http://www.inkscape.org/) -->

<svg
   width="512"
   height="512"
   viewBox="0 0 512 512"
   version="1.1"
   id="svg1"
   inkscape:export-filename="1.png"
   inkscape:export-xdpi="96"
   inkscape:export-ydpi="96"
   inkscape:version="1.3 (0e150ed6c4, 2023-07-21)"
   sodipodi:docname="1.svg"
   xmlns:inkscape="http://www.inkscape.org/namespaces/inkscape"
   xmlns:sodipodi="http://sodipodi.sourceforge.net/DTD/sodipodi-0.dtd"
   xmlns="http://www.w3.org/2000/svg"
   xmlns:svg="http://www.w3.org/2000/svg">
  <sodipodi:namedview
     id="namedview1"
     pagecolor="#505050"
     bordercolor="#ffffff"
     borderopacity="1"
     inkscape:showpageshadow="0"
     inkscape:pageopacity="0"
     inkscape:pagecheckerboard="1"
     inkscape:deskcolor="#505050"
     inkscape:document-units="px"
     inkscape:zoom="1.361733"
     inkscape:cx="221.04186"
     inkscape:cy="257.3926"
     inkscape:window-width="1366"
     inkscape:window-height="699"
     inkscape:window-x="0"
     inkscape:window-y="0"
     inkscape:window-maximized="1"
     inkscape:current-layer="layer1" />
  <defs
     id="defs1">
    <rect
       x="37.744422"
       y="145.85396"
       width="472.76267"
       height="582.75863"
       id="rect3" />
    <rect
       x="61.415822"
       y="148.72211"
       width="289.06694"
       height="311.95132"
       id="rect2" />
    <rect
       x="37.744423"
       y="145.85396"
       width="472.76266"
       height="582.75861"
       id="rect3-7" />
    <rect
       x="37.744423"
       y="145.85396"
       width="472.76266"
       height="582.75861"
       id="rect3-7-9" />
    <rect
       x="37.744423"
       y="145.85396"
       width="472.76266"
       height="582.75861"
       id="rect3-79" />
    <rect
       x="37.744423"
       y="145.85396"
       width="472.76266"
       height="582.75861"
       id="rect3-2" />
    <rect
       x="37.744423"
       y="145.85396"
       width="472.76266"
       height="582.75861"
       id="rect3-29" />
    <rect
       x="37.744423"
       y="145.85396"
       width="472.76266"
       height="582.75861"
       id="rect3-75" />
    <rect
       x="37.744423"
       y="145.85396"
       width="472.76266"
       height="582.75861"
       id="rect3-1" />
  </defs>
  <g
     inkscape:label="Layer 1"
     inkscape:groupmode="layer"
     id="layer1">
    <rect
       style="fill:#feeaa4;fill-opacity:1"
       id="rect1"
       width="512"
       height="512"
       x="0"
       y="0" />
    <path
       id="text1"
       style="font-size:346.667px;font-family:Z003;-inkscape-font-specification:Z003;white-space:pre;shape-inside:url(#rect3);display:inline;fill:#393430;fill-opacity:1"
       d="M 157.69182 98.360157 L 158.03752 98.70586 L 141.05119 98.70586 L 141.05119 99.053516 L 144.51799 101.13359 L 144.51799 101.82695 L 132.38518 103.90703 C 133.42518 104.60037 134.46333 104.94609 135.15666 104.94609 C 135.85 105.29276 136.1977 105.64044 136.89104 105.98711 L 137.9301 107.02617 C 138.27677 107.71951 138.27776 108.06622 138.27776 108.41289 C 138.27776 109.79956 137.23765 110.49297 135.50432 110.49297 L 136.19768 107.71953 L 134.81096 109.10625 C 134.11763 109.45292 133.77091 109.79961 133.42424 109.79961 L 128.22502 113.61406 C 127.53169 114.3074 126.8383 115.34651 126.8383 116.03984 L 125.45158 119.8543 L 124.06486 123.6668 C 123.37153 125.40013 122.67812 127.13365 121.98479 128.52031 C 121.29145 130.25365 121.29049 131.9862 122.33049 133.71953 L 122.33049 134.76055 C 121.63716 138.92055 120.94471 142.73333 119.90471 146.2 C 118.51804 149.66667 117.47692 153.13372 116.09026 156.60039 C 115.74359 156.94706 115.74455 157.63948 115.74455 158.33281 L 117.82463 158.33281 L 115.05119 173.24102 L 105.34416 212.06719 C 102.57083 221.77385 100.49156 231.13297 98.758224 240.49297 C 97.024891 249.85297 95.291349 259.21404 93.211349 268.9207 C 92.171349 272.38737 91.476948 275.85443 90.783615 279.32109 C 90.090282 282.78776 89.050177 286.25287 88.010177 289.71953 L 87.664474 290.41289 C 86.277808 291.10622 85.236714 291.45391 84.543381 291.45391 C 84.543381 293.53391 84.197677 295.26646 84.197677 296.65313 L 84.197677 301.50664 C 83.504344 301.50664 83.504318 301.8543 83.504318 301.8543 L 82.463302 297.00078 C 80.383303 300.46745 79.689891 304.2812 80.383224 308.09453 C 80.383224 308.78787 80.730881 309.13458 80.730881 309.48125 L 80.730881 310.86797 L 79.344162 320.9207 L 77.957443 330.62773 C 77.957443 330.9744 77.61174 330.97344 77.61174 330.97344 L 77.61174 331.32109 C 77.265073 331.32109 77.264084 330.9744 77.264084 330.62773 L 76.918381 330.62773 C 76.225047 331.32107 75.878329 332.36018 75.531662 333.05352 C 75.184995 334.09352 74.49062 334.78792 73.797287 335.48125 L 73.797287 322.65313 L 73.797287 318.14727 C 73.797287 316.7606 74.144969 315.02612 74.838302 313.63945 C 75.184969 311.90612 75.530698 310.17453 75.877365 308.09453 C 75.877365 306.01453 76.225047 304.28 76.918381 302.2 C 77.611714 299.77333 77.958433 297.00068 78.305099 294.22734 C 78.305099 291.45401 78.650829 289.02607 79.344162 286.25273 C 79.690829 285.5594 80.037521 284.86794 80.037521 284.17461 C 82.117521 279.32128 83.503355 274.4674 83.850021 269.61406 C 83.850021 267.53406 84.19674 265.80052 85.23674 264.06719 C 85.930073 263.37385 86.277756 262.67945 86.277756 261.63945 C 86.624422 260.59945 86.970151 259.21362 87.316818 257.82695 C 87.316818 256.44029 87.6645 255.40112 88.357834 254.01445 L 88.357834 252.62773 C 88.011167 252.28107 87.664474 251.93435 87.664474 251.24102 L 89.744552 247.42656 C 90.437886 246.0399 90.783641 244.65307 91.476974 243.26641 L 91.476974 242.57305 C 90.783641 240.49305 90.437938 238.41281 91.131271 236.33281 C 91.824605 234.25281 92.170334 232.17354 92.170334 229.74688 L 92.863693 224.89336 C 92.863693 223.50669 93.211349 221.77414 93.211349 219.69414 C 93.211349 218.30747 93.210386 217.26635 93.557052 215.87969 C 93.557052 214.49302 94.59812 213.45385 95.984787 212.06719 C 96.67812 212.06719 97.023849 211.37281 97.023849 210.33281 C 96.677183 208.25281 96.678172 206.17453 97.371506 204.09453 C 98.064839 202.01453 98.410568 199.9343 98.410568 197.8543 C 98.757235 197.16096 98.757235 196.46656 98.410568 195.42656 C 97.370568 194.38656 97.024839 193.34742 97.371506 192.30742 C 97.371506 191.61409 97.718198 190.573 98.064865 189.18633 C 98.064865 188.493 98.411558 187.45289 98.758224 186.41289 C 99.104891 185.71956 98.758198 184.68042 98.064865 183.29375 C 97.371532 182.94708 97.370542 182.25271 97.717209 181.55938 C 97.717209 180.86604 98.064865 180.17263 98.064865 179.4793 C 97.718198 177.3993 97.37148 175.66677 96.678146 174.97344 C 95.984813 174.2801 94.943693 173.93435 92.863693 173.24102 C 89.397027 172.20102 85.929995 171.85432 83.156662 172.54766 C 82.116662 172.54766 81.424214 172.19997 80.730881 171.50664 C 80.037547 171.50664 79.690829 171.16091 79.344162 170.46758 C 78.650829 170.12091 78.30411 169.77323 77.957443 169.42656 C 77.26411 169.42656 76.570698 169.77326 75.877365 170.11992 C 75.184032 170.46659 74.838276 170.81328 74.144943 170.81328 C 71.37161 168.03995 67.55786 166.3074 63.051193 165.61406 C 63.39786 166.3074 63.744579 166.65313 64.437912 166.65313 L 66.51799 167.69414 C 65.131323 168.04081 64.09023 168.03982 63.396896 167.34648 C 62.356896 166.65315 61.317756 166.65315 60.277756 167.34648 C 60.624422 168.03982 61.316844 168.7332 62.010177 168.7332 C 62.703511 169.07987 63.051193 169.77328 63.051193 170.81328 L 59.23674 170.11992 L 58.197677 172.89336 C 57.504344 174.28003 57.503355 175.32115 57.850021 176.70781 L 57.850021 180.52031 L 53.689865 203.05352 C 53.343198 204.44018 52.997469 205.48031 52.650802 206.52031 C 51.957469 207.90698 51.958433 208.94711 52.305099 209.98711 C 52.305099 211.37378 52.30411 212.75961 51.957443 213.79961 C 51.26411 214.83961 50.918355 215.8807 50.225021 216.9207 C 50.225021 217.26737 50.224058 217.61406 50.570724 217.61406 C 50.917391 217.61406 51.26411 217.61404 51.957443 216.9207 C 52.650776 218.30737 52.998459 218.99982 52.998459 219.34648 C 52.651792 220.03982 51.610698 220.73326 49.877365 222.11992 L 47.451584 233.90703 C 47.104917 235.2937 47.103928 237.02622 47.103927 238.41289 C 47.103927 240.14622 47.797339 241.53305 49.184006 242.57305 C 48.144006 244.65305 47.450594 245.69417 47.103927 246.3875 C 46.410594 247.08083 46.064839 247.42755 45.371506 247.77422 L 43.984787 257.82695 C 43.291454 259.56029 42.943771 261.2938 42.943771 262.68047 C 42.943771 264.4138 42.598068 266.14635 42.598068 267.87969 C 42.251401 269.61302 41.904683 271.34654 41.211349 272.7332 C 40.518016 274.46654 40.518016 276.20104 41.211349 277.93438 L 42.943771 276.54766 C 43.290438 276.54766 43.63812 276.2 43.984787 276.2 C 44.331454 276.2 44.678172 276.19997 45.371506 275.50664 C 42.251506 292.49331 40.863693 309.47992 40.863693 326.11992 C 40.863693 342.75992 41.558094 359.7475 43.291427 376.3875 L 44.33049 376.03984 C 44.33049 376.03984 44.678172 375.69414 45.371506 375.69414 C 45.371506 377.08081 45.718198 378.11997 46.064865 379.50664 C 46.064865 380.89331 46.410594 382.28013 47.103927 383.6668 C 47.103927 384.36013 46.758198 384.70784 46.064865 385.40117 L 48.490646 386.09453 L 49.184006 382.97344 L 52.305099 381.93438 C 52.305099 383.32104 52.650803 384.36117 52.650802 385.40117 C 52.650802 386.44117 52.996532 387.48128 53.689865 388.17461 C 54.036532 389.56128 54.037495 390.60042 53.344162 391.29375 C 52.650829 392.33375 52.649865 393.37289 53.689865 394.41289 C 55.076532 393.37289 55.769943 391.98706 55.769943 390.60039 C 55.769943 389.21372 56.116662 388.17456 57.156662 386.78789 L 57.156662 386.44023 L 57.156662 386.09453 C 55.769995 385.4012 55.42424 384.70779 55.42424 384.01445 C 55.42424 383.32112 55.769969 382.28005 56.463302 381.58672 C 57.156636 380.54672 57.504318 379.50758 57.504318 378.46758 C 57.504318 377.77425 57.504344 376.73315 58.197677 375.34648 L 58.197677 373.95977 C 58.197677 373.26643 58.197704 372.92068 58.891037 372.22734 C 59.58437 371.18734 60.276792 370.14721 60.623459 368.76055 C 60.623459 367.37388 60.971141 366.33276 61.664474 364.94609 C 61.664474 363.90609 62.010177 362.86794 62.010177 362.17461 C 62.010177 361.48128 62.011141 360.44117 61.664474 359.40117 L 61.664474 358.01445 L 64.437912 357.32109 C 65.131245 358.70776 65.824657 359.74693 66.51799 361.13359 C 67.211323 362.52026 68.25049 363.21466 70.33049 363.56133 C 70.677157 362.868 71.023849 361.82693 71.023849 361.13359 C 71.023849 360.44026 71.371532 359.40115 72.064865 358.70781 C 72.411532 361.13448 72.064839 363.21372 71.371506 364.60039 C 70.331506 365.98706 69.984787 367.37289 69.984787 368.41289 C 69.63812 369.10622 69.63812 369.45294 69.984787 369.79961 C 69.984787 370.14628 70.33049 370.49396 70.33049 370.84063 C 70.33049 372.22729 69.984787 373.26643 69.984787 373.95977 L 69.984787 376.7332 C 69.63812 381.58654 68.598016 386.78711 67.211349 391.98711 C 66.864683 392.68044 66.51799 393.0262 66.51799 393.71953 C 66.51799 394.41287 65.823615 394.76055 64.783615 394.76055 C 64.783615 392.68055 64.437912 391.64138 64.437912 390.94805 C 64.437912 390.25471 64.09023 389.5613 63.396896 388.86797 C 63.396896 390.94797 63.050204 393.02721 62.703537 394.76055 C 62.35687 396.84055 61.316766 398.5731 59.930099 399.95977 L 58.543381 396.14727 C 57.850047 394.7606 57.503329 393.37279 57.156662 391.63945 C 56.116662 393.37279 55.770933 394.41289 56.117599 394.41289 C 56.810933 396.14622 56.116558 397.53401 54.383224 398.22734 C 53.689891 398.92068 52.998433 399.2674 52.305099 399.61406 L 52.305099 404.46758 L 52.305099 406.54766 C 52.305099 407.24099 52.304136 408.28109 52.650802 409.32109 L 55.076584 405.50664 C 55.42325 405.50664 55.769943 405.8543 55.769943 405.8543 C 55.769943 407.58763 55.42424 408.62776 55.42424 409.32109 C 54.730907 411.40109 54.383224 413.13365 54.383224 414.52031 C 54.383224 415.90698 54.38325 417.6405 55.076584 419.37383 C 55.076584 420.41383 55.42424 421.79969 55.42424 423.87969 C 55.42424 424.57302 55.076584 425.61409 55.076584 426.30742 C 54.729917 427.34742 54.730907 428.03987 55.42424 428.7332 C 57.157573 431.8532 58.543407 435.32125 59.23674 439.48125 C 59.583407 441.56125 60.623537 442.60042 62.703537 443.29375 C 64.43687 443.98708 65.477 444.33284 66.170334 445.02617 C 66.517 445.71951 66.517 447.10729 66.170334 448.84063 C 66.170334 449.53396 65.824631 449.88068 65.824631 450.22734 L 65.824631 451.26641 C 67.211297 452.30641 67.904709 452.99982 67.904709 453.34648 C 67.904709 454.38648 68.250438 455.08086 68.943771 455.08086 L 71.023849 456.11992 L 70.33049 459.93438 L 69.291427 460.97344 C 68.944761 460.97344 68.598068 460.9744 68.598068 460.62773 C 68.598068 460.28107 68.250412 460.28107 68.250412 460.62773 L 66.863693 462.36016 L 71.371506 464.44023 C 70.678172 466.52023 69.637105 467.90805 68.943771 468.94805 C 69.290438 469.64138 70.678225 469.98714 72.758224 470.68047 C 72.064891 469.2938 72.410594 468.25466 73.103927 467.56133 C 73.797261 466.868 74.837365 466.17359 75.877365 465.13359 L 77.264084 463.74688 C 77.957417 463.40021 78.305099 462.70779 78.305099 462.01445 C 78.305099 461.66779 78.304136 461.32109 78.650802 461.32109 C 78.650802 461.32109 78.997495 460.97341 79.344162 460.28008 C 80.730828 458.89341 82.463355 456.8132 83.850021 454.7332 C 84.196688 454.7332 84.543381 454.38651 84.543381 454.03984 C 84.543381 453.69318 84.891063 453.34648 85.584396 453.34648 C 86.624396 453.34648 87.6645 452.6531 88.357834 451.95977 C 89.051167 451.26643 89.744579 450.57398 90.437912 449.53398 C 90.784579 448.84065 91.824683 448.14625 93.211349 447.10625 C 94.251349 446.41292 95.29148 445.72047 96.678146 444.68047 C 97.718146 443.98714 98.411558 442.60034 98.758224 441.21367 C 98.758224 439.48034 99.45161 437.74682 100.14494 436.36016 C 100.83828 434.97349 101.87739 433.58667 102.57072 432.2 C 103.26406 430.46667 104.99757 429.77422 107.42424 429.77422 L 108.1176 432.54766 C 109.85093 428.38766 111.23677 424.57292 111.9301 421.10625 C 112.62343 416.25292 112.97015 411.05333 113.31682 406.2 C 113.66348 401.34667 114.0102 396.49375 114.70354 391.29375 C 114.70354 390.25375 115.05119 388.52023 115.05119 386.44023 C 115.39786 383.6669 115.74359 380.54755 116.09026 377.77422 L 116.78361 369.10625 C 117.13028 367.02625 117.13127 365.29469 117.13127 364.25469 C 116.43794 362.17469 116.43794 360.09445 117.13127 358.01445 C 117.47794 355.93445 117.82463 353.85422 117.82463 351.77422 L 118.51799 344.84063 L 118.51799 337.90703 C 118.17132 336.1737 117.82463 334.44115 117.82463 332.70781 C 117.82463 331.32115 118.17036 329.58664 118.86369 327.50664 C 119.21036 326.11997 119.55804 324.38646 119.90471 322.65313 C 119.90471 320.91979 120.25044 319.18625 120.94377 317.10625 C 121.6371 315.37292 121.98479 313.29367 121.98479 311.21367 C 121.98479 309.13367 122.33052 307.05344 123.02385 304.97344 L 123.71721 299.42656 C 123.71721 297.34656 124.06489 295.61398 124.75822 293.53398 L 127.18401 281.05352 C 128.91734 281.05352 130.65184 280.70779 132.38518 280.01445 C 133.77184 279.32112 135.5044 278.97344 137.5844 278.97344 C 137.5844 278.97344 137.93013 278.97341 138.62346 278.28008 L 144.51799 276.2 L 147.63713 275.16094 C 148.67713 274.81427 149.71822 274.81328 150.75822 274.81328 C 152.49156 275.50662 154.22507 275.50662 155.61174 274.81328 C 156.99841 274.11995 158.38523 273.77419 159.7719 273.08086 C 160.8119 272.73419 161.85005 272.38747 162.54338 271.69414 C 163.23671 271.00081 164.27781 270.6531 165.66447 269.95977 L 175.37151 265.79961 C 177.10484 265.45294 178.49067 265.10622 179.18401 264.41289 L 185.42424 260.94609 L 191.66447 256.78789 C 194.09114 255.05456 196.5171 253.32102 198.94377 251.24102 C 201.02377 249.16102 203.45166 247.08078 205.53166 245.00078 L 211.7719 238.76055 C 213.50523 236.68055 215.23682 234.25263 217.31682 231.4793 C 219.39682 228.70596 221.82375 224.8932 224.25041 220.7332 C 225.29041 218.99987 226.33052 217.26633 227.02385 215.18633 C 227.71718 213.10633 228.41158 211.37375 229.45158 209.29375 C 229.45158 209.29375 229.45161 208.94607 230.14494 208.25273 C 230.14494 208.25273 230.83833 207.55932 231.53166 206.17266 C 232.225 204.78599 233.26411 203.40112 233.95744 202.01445 C 234.65078 200.62779 235.34419 199.58667 236.03752 198.2 C 236.73085 197.16 237.07854 196.46755 237.07854 195.77422 L 237.07854 194.3875 L 234.6508 197.16094 L 237.07854 186.76055 C 237.4252 184.68055 237.77093 182.25266 238.1176 180.17266 C 238.46427 178.09266 238.81195 175.66768 239.15861 173.24102 C 239.15861 171.16102 238.81192 169.08078 238.46526 167.00078 C 238.11859 164.92078 237.7719 162.84055 237.7719 160.76055 L 236.73088 155.90703 L 233.26408 147.58672 C 232.57075 146.20005 232.225 145.16089 231.53166 143.77422 C 230.83833 142.38755 230.83833 140.99974 231.53166 139.26641 L 230.14494 139.26641 L 229.10393 137.18633 C 228.75726 136.493 228.75726 136.14724 229.10393 135.45391 C 229.10393 133.02724 228.41148 130.94604 226.67815 129.55938 L 225.63713 128.52031 C 224.9438 126.09365 224.25036 124.36109 222.86369 123.32109 C 221.47703 122.62776 220.0902 121.58669 218.70354 120.89336 C 218.0102 120.20003 217.31778 119.50662 216.97111 118.81328 C 216.27778 118.11995 215.93106 117.77419 215.5844 117.08086 C 214.19773 116.04086 213.15856 115.00076 211.7719 114.30742 C 210.38523 113.61409 208.99841 112.57398 207.61174 111.53398 C 196.51841 105.29399 185.42382 101.48021 174.33049 99.746876 L 166.01018 98.360157 L 157.69182 98.360157 z M 168.09026 121.24102 C 172.25026 121.24102 176.41169 121.58773 180.22502 122.62773 C 183.69169 124.0144 187.15679 126.09268 190.62346 128.86602 C 192.70346 130.94602 194.78367 133.37294 196.17033 135.79961 C 197.557 138.57294 198.59812 141.34659 199.98479 144.11992 C 200.67812 146.19992 201.37054 148.62781 201.71721 150.70781 C 202.06388 153.13448 202.06388 155.55945 201.71721 157.63945 C 201.37054 158.67945 201.37153 159.37383 202.06486 159.37383 C 202.41153 159.37383 202.75822 159.72052 202.75822 160.06719 C 202.41156 161.45385 202.06486 163.18638 202.06486 164.57305 C 202.06486 165.95971 201.71817 167.69419 201.37151 169.08086 C 202.06484 169.08086 203.10398 169.42755 204.49065 169.77422 C 204.14398 170.46755 204.14494 171.16096 204.14494 171.8543 C 204.14494 172.54763 204.14395 173.24104 203.79729 173.93438 L 197.90471 187.79961 L 196.51799 190.22734 L 195.47697 192.30742 L 194.43791 194.7332 C 193.74458 196.11987 192.70351 197.16096 192.01018 197.8543 C 191.31684 198.8943 190.62442 199.93344 190.27776 200.97344 L 187.85002 206.17266 C 187.15669 207.21266 186.81096 207.55938 186.81096 207.55938 C 185.42429 207.55938 184.38518 208.25276 184.38518 208.94609 C 184.03851 209.98609 183.69083 210.6805 183.34416 211.37383 C 181.9575 213.45383 180.91736 215.18737 179.87736 216.9207 C 178.83737 219.0007 177.45151 220.38656 175.37151 221.42656 C 175.02484 221.77323 174.67716 222.11992 174.33049 222.11992 C 173.98382 222.46659 173.98481 222.81427 174.67815 223.16094 L 174.67815 223.8543 L 173.98479 224.54766 L 168.09026 228.01445 L 166.70354 229.05352 C 163.9302 231.13352 161.50427 233.56044 160.1176 235.98711 C 159.77093 236.68044 159.07851 237.02716 158.38518 237.37383 L 156.3051 238.41289 C 155.61177 238.75956 155.26505 239.10724 154.91838 239.45391 C 154.22505 239.80057 153.87833 240.14727 153.53166 240.14727 L 149.37151 242.22734 L 153.18401 243.26641 C 151.45067 243.95974 150.06385 244.65412 149.02385 245.00078 C 147.63718 245.34745 146.59705 245.69417 145.55705 246.3875 C 144.51705 247.08083 143.47695 247.77425 142.78361 248.46758 C 141.74362 249.16091 141.0502 250.20003 140.70354 250.89336 C 139.66354 252.28003 138.62341 252.97443 137.23674 253.32109 C 135.85007 254.01443 134.81091 254.36018 133.42424 255.05352 C 133.42424 253.66685 133.77093 252.62672 134.1176 251.58672 L 134.81096 248.81328 L 136.89104 238.41289 C 137.2377 236.33289 137.23674 234.94703 137.23674 233.90703 C 136.89007 230.44037 136.89106 226.97331 137.5844 223.50664 C 137.93106 220.03997 138.62447 216.92057 139.66447 213.45391 C 140.35781 209.98724 141.39692 206.17448 142.09026 202.70781 C 142.78359 199.24115 143.82468 195.4274 145.21135 191.61406 C 145.90468 189.1874 146.59713 186.76044 147.63713 183.98711 C 148.33046 181.21378 149.37156 178.44013 150.75822 175.6668 C 151.10489 173.93346 151.79731 172.19995 152.49065 170.81328 C 153.18398 169.42662 153.53169 167.69406 154.22502 165.61406 C 154.91835 162.84073 155.6108 160.06708 156.6508 157.29375 C 157.6908 154.86708 158.73093 152.44013 160.1176 149.6668 C 160.1176 149.32013 160.4633 148.62672 160.4633 147.58672 C 159.76997 146.20005 159.76997 144.81323 160.4633 143.42656 C 160.80997 142.0399 160.81093 140.30737 160.1176 138.9207 C 159.77093 138.9207 159.76997 138.22732 160.4633 137.53398 C 161.15664 135.80065 161.85005 133.71945 162.54338 131.63945 L 163.9301 124.70586 C 164.27677 123.31919 164.62445 122.28104 164.97111 121.93438 C 165.31778 121.93438 166.35692 121.58768 168.09026 121.24102 z M 214.19768 203.40117 L 214.89104 203.40117 L 214.89104 204.78594 L 213.85002 205.82695 C 213.85002 205.13362 214.19768 204.09451 214.19768 203.40117 z M 212.46526 206.86602 C 213.85192 207.55935 214.19765 208.59945 213.50432 209.63945 C 212.81098 210.33279 212.46526 210.6805 212.46526 211.37383 C 212.46526 212.06716 212.11856 212.41388 211.7719 212.76055 L 204.14494 220.3875 L 201.37151 223.50664 L 199.29143 224.54766 L 198.94377 224.2 C 199.98377 223.16 201.02388 222.11987 201.71721 220.7332 C 202.41054 219.6932 203.45164 218.65307 204.8383 217.26641 C 207.61164 214.83974 209.69187 212.06708 211.07854 209.29375 C 211.07854 208.94708 211.42523 208.5994 211.7719 208.25273 C 211.7719 207.90607 212.11859 207.55935 212.46526 206.86602 z M 192.01018 220.3875 L 187.85002 227.6668 C 187.50335 224.89346 188.89018 222.4675 192.01018 220.3875 z M 207.26408 223.8543 C 206.57075 224.8943 206.22403 225.58675 205.87736 226.28008 C 205.5307 226.97341 205.18401 227.32112 205.18401 228.01445 C 204.49067 229.40112 203.79822 230.09453 202.75822 230.09453 C 202.06489 230.09453 201.71718 230.44026 201.02385 231.13359 L 199.63713 232.52031 L 198.25041 233.90703 C 197.55708 234.60037 197.21036 234.94609 196.86369 234.94609 C 195.13036 235.63943 194.09122 236.33281 193.74455 236.33281 C 193.05122 236.33281 192.35682 237.02719 191.31682 238.06719 C 192.01015 235.98719 193.05125 234.25365 194.43791 232.52031 C 195.82458 230.78698 197.2114 228.70773 198.59807 226.62773 C 199.63807 226.28107 201.0239 225.93435 202.41057 225.24102 C 203.79723 224.89435 205.18408 224.54763 207.26408 223.8543 z M 114.35783 315.37383 C 115.05117 316.06716 115.3969 316.76057 115.3969 317.45391 L 115.3969 319.53398 L 114.70354 323.69414 C 114.70354 324.38747 114.70453 325.08089 115.05119 325.77422 C 115.05119 326.46755 114.70447 327.15997 113.66447 327.50664 L 113.66447 321.26641 L 113.66447 318.49297 C 113.66447 317.79964 114.01117 316.7605 114.35783 315.37383 z M 76.918381 333.40117 C 77.265047 334.78784 77.61174 335.48026 77.61174 335.13359 C 76.225073 336.52026 75.877365 338.25279 75.877365 339.63945 C 75.877365 341.37279 75.878329 343.1063 75.531662 344.49297 C 75.184995 345.1863 75.184006 346.22737 75.184006 346.9207 C 75.184006 347.61404 74.837313 348.65315 74.490646 349.34648 C 74.14398 350.03982 73.797287 351.08089 73.797287 351.77422 C 73.45062 352.46755 73.45161 353.50667 74.144943 354.2 L 74.144943 355.93438 C 73.798276 356.62771 73.797287 356.97443 73.797287 357.32109 L 73.103927 357.32109 L 72.758224 356.97344 C 72.064891 355.93344 72.063901 354.89331 72.410568 353.50664 C 72.757235 352.46664 73.103928 351.42651 73.103927 350.03984 C 73.103927 348.65318 73.45062 347.26635 73.797287 345.87969 C 74.143954 344.49302 74.490646 343.1062 74.490646 341.71953 C 74.490646 340.33287 74.490672 339.2937 75.184006 337.90703 C 75.877339 336.52037 76.225047 335.13451 76.918381 333.40117 z M 47.797287 388.17461 L 47.797287 389.56133 C 47.797287 390.25466 48.144943 390.60138 48.144943 390.94805 L 48.838302 390.60039 L 48.838302 388.17461 L 47.797287 388.17461 z "
       transform="translate(116.07576,-28.520313)" />
  </g>
</svg>
